<svg width="30" height="30" viewBox="0 0 30 30" fill="none" xmlns="http://www.w3.org/2000/svg">
<path fill-rule="evenodd" clip-rule="evenodd" d="M15 10V6H5V24H25V10H15V10ZM9 22H7V20H9V22V22ZM9 18H7V16H9V18V18ZM9 14H7V12H9V14V14ZM9 10H7V8H9V10V10ZM13 22H11V20H13V22V22ZM13 18H11V16H13V18V18ZM13 14H11V12H13V14V14ZM13 10H11V8H13V10V10ZM23 22H15V20H17V18H15V16H17V14H15V12H23V22V22ZM21 14H19V16H21V14V14ZM21 18H19V20H21V18V18Z" fill="#D8D8D8"/>
<mask id="mask0_0_29" style="mask-type:luminance" maskUnits="userSpaceOnUse" x="5" y="6" width="20" height="18">
<path fill-rule="evenodd" clip-rule="evenodd" d="M15 10V6H5V24H25V10H15V10ZM9 22H7V20H9V22V22ZM9 18H7V16H9V18V18ZM9 14H7V12H9V14V14ZM9 10H7V8H9V10V10ZM13 22H11V20H13V22V22ZM13 18H11V16H13V18V18ZM13 14H11V12H13V14V14ZM13 10H11V8H13V10V10ZM23 22H15V20H17V18H15V16H17V14H15V12H23V22V22ZM21 14H19V16H21V14V14ZM21 18H19V20H21V18V18Z" fill="white"/>
</mask>
<g mask="url(#mask0_0_29)">
</g>
</svg>
